{"title":"Yella-Christian Petzold-2007-XVid-Fragment-NORAR-RESeed","uid":6419185,"size":734963758,"categoryP":"video","categoryS":"movies","magnet":"?xt=urn:btih:242b0c8b83dd31ad3c3335fcf9a767b5ecfe0291&amp;dn=Yella-Christian+Petzold-2007-XVid-Fragment-NORAR-RESeed&amp;tr=udp%3A%2F%2Ftracker.openbittorrent.com%3A80&amp;tr=udp%3A%2F%2Fopen.demonii.com%3A1337&amp;tr=udp%3A%2F%2Ftracker.coppersurfer.tk%3A6969&amp;tr=udp%3A%2F%2Fexodus.desync.com%3A6969","seeders":2,"leechers":0,"uploader":"eluent","files":2,"time":1306256961,"description":"(I'm not fragment, this is kind of a reseed of a dead torrent which was segmented in many rars)\n\nThe best movie by Christian Petzold.\n\nCan't reveal anything interesting about the plot without spoiling it.\n\nThere's a clever way there to make us explore many aspects of the life of a woman such as Yella, to drive us into many conflicting perspective, yet all interessant.\n\nSome snapshots :\n &lt;a href=&quot;\nhttp://pic.phyrefile.com/d/da/davdesj/2011/05/24/Yella_sourit.jpg&quot; rel=&quot;nofollow&quot; target=&quot;_NEW&quot;&gt;\nhttp://pic.phyrefile.com/d/da/davdesj/2011/05/24/Yella_sourit.jpg&lt;/a&gt;\n &lt;a href=&quot;\nhttp://pic.phyrefile.com/d/da/davdesj/2011/05/24/Yella_plage.jpg&quot; rel=&quot;nofollow&quot; target=&quot;_NEW&quot;&gt;\nhttp://pic.phyrefile.com/d/da/davdesj/2011/05/24/Yella_plage.jpg&lt;/a&gt;\n &lt;a href=&quot;\nhttp://pic.phyrefile.com/d/da/davdesj/2011/05/24/Yella_dette.jpg&quot; rel=&quot;nofollow&quot; target=&quot;_NEW&quot;&gt;\nhttp://pic.phyrefile.com/d/da/davdesj/2011/05/24/Yella_dette.jpg&lt;/a&gt;\n &lt;a href=&quot;\nhttp://pic.phyrefile.com/d/da/davdesj/2011/05/24/Yella_affaires.jpg&quot; rel=&quot;nofollow&quot; target=&quot;_NEW&quot;&gt;\nhttp://pic.phyrefile.com/d/da/davdesj/2011/05/24/Yella_affaires.jpg&lt;/a&gt;\n\nMedia Info :\n\nFormat                           : AVI\nFormat/Info                      : Audio Video Interleave\nFile size                        : 701 MiB\nDuration                         : 1h 24mn\nOverall bit rate                 : 1 154 Kbps\nWriting application              : VirtualDubMod 1.5.10.2 (build 2540/release)\nWriting library                  : VirtualDubMod build 2540/release\n\nVideo\nID                               : 0\nFormat                           : MPEG-4 Visual\nFormat profile                   : Advanced Simple@L5\nFormat settings, BVOP            : 2\nFormat settings, QPel            : No\nFormat settings, GMC             : No warppoints\nFormat settings, Matrix          : Default (H.263)\nMuxing mode                      : Packed bitstream\nCodec ID                         : XVID\nCodec ID/Hint                    : XviD\nDuration                         : 1h 24mn\nBit rate                         : 991 Kbps\nWidth                            : 592 pixels\nHeight                           : 320 pixels\nDisplay aspect ratio             : 1.850\nFrame rate                       : 25.000 fps\nColor space                      : YUV\nChroma subsampling               : 4:2:0\nBit depth                        : 8 bits\nScan type                        : Progressive\nCompression mode                 : Lossy\nBits/(Pixel*Frame)               : 0.209\nStream size                      : 602 MiB (86%)\nWriting library                  : XviD 1.1.2 (UTC 2006-11-01)\n\nAudio\nID                               : 1\nFormat                           : MPEG Audio\nFormat version                   : Version 1\nFormat profile                   : Layer 3\nMode                             : Joint stereo\nMode extension                   : MS Stereo\nCodec ID                         : 55\nCodec ID/Hint                    : MP3\nDuration                         : 1h 24mn\nBit rate mode                    : Variable\nBit rate                         : 151 Kbps\nChannel(s)                       : 2 channels\nSampling rate                    : 48.0 KHz\nCompression mode                 : Lossy\nStream size                      : 91.5 MiB (13%)\nAlignment                        : Aligned on interleaves\nInterleave, duration             : 24 ms (0.60 video frame)\nInterleave, preload duration     : 331 ms\n\n","torrent":{"xt":"urn:btih:242b0c8b83dd31ad3c3335fcf9a767b5ecfe0291","amp;dn":"Yella-Christian+Petzold-2007-XVid-Fragment-NORAR-RESeed","amp;tr":["udp%3A%2F%2Ftracker.openbittorrent.com%3A80","udp%3A%2F%2Fopen.demonii.com%3A1337","udp%3A%2F%2Ftracker.coppersurfer.tk%3A6969","udp%3A%2F%2Fexodus.desync.com%3A6969"],"infoHash":"242b0c8b83dd31ad3c3335fcf9a767b5ecfe0291","infoHashBuffer":{"type":"Buffer","data":[36,43,12,139,131,221,49,173,60,51,53,252,249,167,103,181,236,254,2,145]},"announce":[],"urlList":[]}}